<?xml version="1.0" standalone="no"?>
<!DOCTYPE svg PUBLIC "-//W3C//DTD SVG 20010904//EN"
 "http://www.w3.org/TR/2001/REC-SVG-20010904/DTD/svg10.dtd">
<svg version="1.0" xmlns="http://www.w3.org/2000/svg"
 width="1280.000000pt" height="1240.000000pt" viewBox="0 0 1280.000000 1240.000000"
 preserveAspectRatio="xMidYMid meet">
<metadata>
Created by potrace 1.15, written by Peter Selinger 2001-2017
</metadata>
<g transform="translate(0.000000,1240.000000) scale(0.100000,-0.100000)"
fill="#000000" stroke="none">
<path d="M4271 12390 c-92 -20 -181 -79 -227 -151 l-23 -37 -38 14 c-50 17
-108 17 -218 -1 -102 -16 -110 -22 -156 -120 -73 -155 -61 -265 62 -542 77
-173 108 -274 119 -374 7 -74 4 -118 -16 -244 -8 -56 16 -82 120 -134 73 -36
126 -80 126 -105 0 -3 -18 -30 -39 -61 -134 -192 -174 -555 -100 -920 27 -132
36 -141 165 -174 23 -6 53 -22 68 -36 l27 -25 -34 -41 c-44 -50 -62 -114 -61
-209 0 -79 16 -143 42 -173 8 -9 38 -24 65 -32 52 -15 97 -40 97 -53 0 -4 -16
-16 -36 -27 -64 -34 -109 -107 -179 -288 l-37 -97 -37 6 c-20 4 -99 26 -176
49 -77 24 -166 48 -197 55 -53 10 -61 16 -128 91 -128 141 -239 215 -362 241
-47 10 -59 17 -68 39 -18 42 -64 80 -110 90 -22 5 -45 7 -50 4 -4 -3 -25 17
-45 45 -119 162 -295 251 -529 266 -100 6 -150 -4 -321 -66 -118 -43 -155 -39
-298 31 -100 48 -116 53 -194 57 -101 5 -174 -9 -261 -50 -110 -52 -242 -194
-312 -338 -18 -38 -37 -54 -116 -103 -188 -116 -296 -222 -350 -343 -26 -59
-22 -93 21 -185 14 -30 25 -72 25 -96 0 -64 -31 -86 -285 -203 -145 -66 -192
-127 -202 -263 -10 -136 39 -258 145 -359 104 -100 232 -148 391 -148 l91 0 0
33 c0 47 -22 117 -74 244 -71 173 -63 251 35 322 l41 30 37 -19 c21 -10 85
-56 142 -102 127 -102 182 -129 270 -136 60 -4 71 -9 112 -44 100 -85 179
-233 304 -568 106 -284 192 -436 298 -521 97 -78 240 -116 383 -103 l72 6 0
-36 c0 -20 -11 -59 -25 -86 -38 -75 -34 -111 26 -204 65 -102 138 -178 329
-341 85 -73 182 -161 216 -196 57 -61 124 -149 124 -165 0 -4 -47 -56 -105
-115 -110 -113 -165 -201 -165 -265 0 -39 -11 -52 -86 -102 -103 -69 -154
-144 -154 -229 0 -29 -2 -30 -51 -36 -95 -12 -167 -75 -206 -180 -8 -23 -27
-103 -42 -177 l-27 -135 -67 -17 c-111 -29 -186 -88 -228 -177 -16 -35 -20
-60 -18 -121 l3 -77 -57 -67 c-97 -115 -127 -193 -127 -339 0 -98 7 -119 56
-162 52 -46 54 -81 8 -136 -45 -53 -79 -128 -100 -218 -23 -95 -14 -302 16
-391 29 -88 66 -149 93 -155 12 -2 49 -9 81 -15 103 -17 103 -17 104 -172 1
-214 23 -276 249 -694 123 -227 153 -273 214 -328 59 -53 121 -76 204 -76 l62
0 16 -52 c9 -29 30 -106 46 -171 19 -74 41 -134 59 -160 l28 -42 204 3 c113 2
232 8 264 13 172 30 269 144 270 319 1 93 -27 157 -87 201 -48 34 -58 33 -69
-8 -13 -51 -82 -119 -140 -139 -94 -31 -213 1 -284 78 -26 27 -33 44 -38 98
-4 36 -27 166 -51 290 -67 343 -78 552 -34 625 25 41 99 111 195 183 142 106
167 145 190 294 9 57 25 123 35 147 18 41 21 43 51 37 82 -17 127 -18 179 -3
115 34 182 131 183 266 1 42 -3 95 -7 117 -7 35 -6 42 10 47 10 3 88 24 173
46 193 52 266 89 289 148 9 23 30 61 47 85 70 100 163 103 374 13 74 -31 180
-73 235 -94 98 -35 103 -36 245 -36 205 1 248 20 441 199 l85 78 75 3 c55 2
98 11 169 37 165 61 192 59 171 -12 -41 -137 -59 -357 -42 -515 45 -411 231
-739 520 -916 l54 -33 78 28 c42 15 90 26 106 24 35 -4 54 -41 89 -170 41
-152 75 -192 168 -192 46 -1 61 4 101 33 29 21 63 35 89 38 l41 5 26 -54 c57
-116 160 -222 269 -278 54 -27 169 -60 241 -68 l64 -7 3 -35 c5 -77 25 -149
47 -170 12 -11 62 -38 111 -60 219 -96 249 -189 165 -514 -34 -134 -41 -176
-41 -255 0 -108 16 -154 76 -228 19 -23 48 -73 65 -110 17 -37 39 -86 48 -108
10 -22 30 -54 44 -71 36 -42 116 -59 272 -58 165 1 243 32 294 115 33 54 29
118 -13 172 -66 86 -68 101 -13 112 43 9 148 61 222 110 80 53 228 203 291
295 110 161 183 340 205 505 13 101 10 134 -31 305 -35 148 -37 214 -9 352 38
191 22 300 -67 453 -77 132 -113 200 -129 245 -15 42 -15 42 25 107 91 152
134 298 128 438 -5 107 -32 169 -99 229 -41 38 -42 39 -26 65 41 70 42 235 2
409 -20 86 -20 89 18 95 39 6 178 97 208 136 12 14 60 89 107 165 47 77 113
168 146 203 211 226 599 443 796 445 53 1 85 -7 175 -41 203 -78 255 -68 373
72 38 45 85 91 105 102 l36 19 26 -24 c14 -13 44 -58 66 -99 53 -99 81 -128
136 -139 58 -13 92 -2 157 46 64 49 96 66 105 55 4 -4 13 -30 20 -58 46 -184
191 -328 393 -391 l57 -17 50 -121 c67 -165 76 -202 72 -322 -1 -39 -54 -95
-122 -129 -64 -33 -233 -78 -238 -64 -1 5 -23 30 -47 53 -65 65 -58 116 20
130 68 13 76 69 14 99 -43 21 -162 25 -227 7 -36 -9 -42 -16 -61 -67 -68 -182
-44 -322 74 -430 98 -90 227 -135 387 -136 119 0 212 22 304 72 l70 37 3 77
c3 74 4 76 36 96 61 38 135 128 176 213 82 173 108 374 75 588 -20 133 -28
156 -86 251 -75 122 -96 181 -120 336 -36 232 -76 336 -230 599 -116 199 -149
271 -149 326 -1 222 -144 407 -356 462 -79 20 -215 20 -304 0 l-68 -15 -83 65
c-94 74 -198 132 -273 152 -57 15 -202 18 -258 5 l-38 -9 -147 150 c-210 213
-303 274 -453 300 -64 11 -79 10 -192 -15 -181 -40 -194 -38 -383 51 l-120 57
-100 0 c-94 -1 -108 -4 -249 -53 -135 -47 -196 -62 -196 -47 0 3 8 22 19 43
35 69 66 182 131 462 24 105 60 224 85 283 11 26 26 43 48 52 145 61 208 210
193 460 -4 60 -9 124 -12 140 -4 24 3 41 35 82 46 62 86 161 102 257 18 109 6
322 -31 521 -17 94 -40 220 -51 280 -11 61 -23 154 -27 208 -6 84 -5 97 8 95
8 -2 30 -35 49 -75 41 -87 62 -99 154 -89 241 24 525 366 553 663 13 140 -48
246 -162 279 -83 24 -147 6 -298 -85 -108 -65 -115 -66 -188 -41 -222 77 -489
91 -649 35 l-38 -14 -50 55 c-85 93 -119 232 -100 408 10 85 10 89 -13 113
-13 14 -43 37 -68 51 -42 25 -53 27 -160 26 -104 0 -124 -3 -205 -33 -49 -18
-140 -57 -202 -86 l-112 -53 -35 -71 c-67 -131 -113 -165 -351 -251 -157 -56
-210 -87 -288 -168 -90 -92 -132 -159 -266 -425 l-126 -251 -58 -34 c-32 -18
-115 -88 -185 -155 -116 -111 -175 -158 -186 -146 -15 16 -180 422 -201 494
-29 99 -55 261 -55 343 0 51 -1 53 -45 81 -24 15 -84 38 -132 51 -48 13 -91
26 -96 30 -4 3 -14 32 -22 64 -14 53 -54 156 -169 428 -25 59 -61 154 -82 210
-83 232 -146 301 -298 323 -47 7 -49 9 -104 94 -121 188 -142 218 -184 260
-63 64 -132 93 -219 92 -39 0 -75 -3 -80 -7 -6 -3 -32 16 -60 44 -53 53 -138
103 -216 128 -60 18 -204 26 -262 14z m215 -98 c23 -11 84 -50 137 -86 106
-72 173 -93 263 -82 46 5 55 3 90 -23 56 -40 119 -112 198 -224 87 -123 167
-199 241 -226 31 -12 64 -21 74 -21 45 0 85 -77 147 -281 55 -182 94 -268 144
-313 35 -31 37 -38 43 -107 5 -58 58 -275 70 -285 1 -1 48 -11 104 -23 120
-26 168 -44 179 -68 4 -10 9 -92 9 -183 2 -196 8 -219 101 -382 90 -156 105
-193 111 -270 7 -81 0 -101 -80 -226 -103 -164 -109 -198 -111 -632 -2 -282
-5 -345 -19 -395 -34 -119 -57 -150 -57 -77 -1 64 -16 15 -34 -108 -25 -171
-56 -334 -67 -351 -8 -12 -12 -11 -24 5 -17 22 -20 82 -5 120 8 21 0 44 -44
138 -165 347 -277 705 -506 1608 -193 761 -217 846 -310 1081 -74 187 -173
382 -262 520 -38 60 -72 109 -74 109 -2 0 9 -27 26 -60 147 -291 314 -794 525
-1580 132 -491 241 -866 324 -1110 98 -292 304 -889 328 -952 18 -47 18 -48
-4 -70 -19 -19 -27 -20 -59 -12 -20 5 -45 20 -55 34 -22 29 -39 111 -39 181 0
67 -51 216 -180 519 -138 326 -171 422 -215 628 -20 92 -62 262 -95 377 -32
116 -82 300 -110 410 -250 970 -370 1328 -565 1685 -98 179 -165 276 -208 301
-21 11 -79 62 -128 111 -76 76 -164 137 -177 123 -12 -11 87 -135 232 -289
257 -274 273 -303 429 -766 118 -350 162 -508 322 -1135 107 -421 130 -501
345 -1184 56 -177 100 -325 97 -327 -2 -2 -35 62 -75 144 -104 217 -156 360
-293 817 -109 362 -188 607 -200 619 -14 15 -11 -80 5 -154 8 -36 37 -132 64
-215 28 -82 69 -235 92 -340 52 -235 77 -315 147 -469 110 -242 155 -352 193
-466 86 -261 122 -382 116 -396 -9 -23 -106 -64 -154 -64 -84 0 -146 45 -312
228 -99 109 -190 174 -390 273 -182 91 -287 125 -427 138 -128 12 -174 30
-221 86 -26 32 -29 41 -21 73 5 20 9 41 9 46 0 4 47 54 104 110 85 83 106 110
111 140 11 54 -6 82 -62 107 -126 55 -137 63 -146 99 -15 58 -3 117 36 173 52
78 59 96 53 132 -15 77 -98 148 -208 175 l-45 12 -16 76 c-32 151 -40 227 -34
342 7 138 32 225 119 413 76 165 88 219 62 273 -16 33 -32 45 -101 79 -46 22
-97 55 -115 72 l-32 32 12 109 c27 242 14 301 -112 537 -94 174 -111 221 -110
310 0 60 5 79 33 132 18 34 42 70 52 79 28 25 106 28 221 9 57 -10 112 -18
122 -17 27 1 63 40 110 119 23 37 52 73 66 81 39 20 185 11 236 -16z m4104
-987 c70 -25 83 -37 70 -71 -16 -40 -15 -180 0 -245 24 -101 75 -175 142 -204
24 -10 45 -20 47 -22 2 -1 -44 -53 -103 -114 -242 -253 -420 -497 -643 -884
-205 -356 -338 -648 -463 -1020 -98 -289 -143 -462 -137 -517 8 -62 -8 -106
-40 -114 -31 -8 -39 4 -47 70 -9 66 11 166 64 331 30 92 44 156 49 220 8 97 5
90 195 488 137 288 363 692 509 912 87 131 243 337 331 437 42 48 76 90 76 94
0 12 -55 -8 -86 -31 -17 -13 -62 -61 -100 -106 -38 -45 -84 -92 -102 -104 -22
-15 -75 -92 -164 -236 -417 -679 -543 -914 -669 -1247 -70 -187 -143 -470
-174 -677 -6 -38 -9 -42 -55 -58 -58 -21 -120 -86 -146 -154 -25 -64 -13 -89
61 -128 45 -24 59 -36 57 -51 -1 -10 -6 -89 -11 -174 -10 -162 -19 -200 -53
-237 -43 -46 -54 -36 -221 217 -108 163 -170 240 -240 298 -65 53 -162 99
-241 114 -72 14 -71 11 -66 98 2 39 37 124 71 172 20 27 20 29 3 20 -60 -32
-97 -110 -119 -247 -9 -55 -24 -123 -34 -152 -30 -90 -6 -119 134 -162 73 -22
113 -45 97 -55 -38 -23 -444 -37 -457 -16 -4 6 -9 43 -12 83 -7 100 16 216 83
405 31 86 68 193 82 237 l27 80 0 355 0 355 33 41 c18 23 51 87 73 144 22 56
53 121 69 144 32 48 114 117 275 232 61 44 149 117 196 164 82 80 91 93 154
225 97 204 113 233 171 310 127 170 295 295 553 412 80 36 100 50 136 95 110
140 285 259 422 287 60 12 144 6 203 -14z m903 -615 c44 -11 83 -22 86 -25 2
-3 -41 -96 -98 -208 -56 -111 -108 -227 -116 -257 -34 -127 -14 -296 69 -608
70 -263 80 -323 80 -462 0 -142 -5 -162 -86 -355 -30 -71 -61 -152 -69 -180
-18 -64 -18 -216 0 -278 l14 -49 -116 -116 c-157 -159 -181 -209 -243 -522
-43 -218 -75 -317 -163 -497 -132 -270 -310 -525 -612 -878 -202 -235 -286
-319 -369 -367 -81 -48 -109 -48 -151 -3 -55 58 -108 56 -180 -9 -20 -19 -46
-37 -58 -41 -27 -8 -27 -11 9 -87 16 -34 30 -69 30 -75 0 -9 -21 -13 -70 -13
-39 0 -122 -11 -186 -25 -108 -23 -224 -33 -224 -19 0 4 21 52 46 108 199 432
369 966 465 1455 l22 114 24 -27 c27 -32 29 -69 8 -178 -25 -132 -7 -169 71
-142 76 26 121 61 149 117 48 97 31 210 -76 512 -54 149 -54 150 -53 265 1
227 105 657 254 1050 161 427 447 968 717 1358 36 51 62 96 58 100 -3 3 -26
-4 -51 -17 -50 -27 -96 -84 -144 -181 -18 -36 -92 -164 -165 -285 -397 -658
-609 -1185 -695 -1728 -12 -72 -23 -143 -26 -156 l-5 -24 -35 34 c-68 66 -69
142 -3 330 49 139 61 177 89 299 28 119 99 335 152 459 92 218 210 439 463
866 78 132 165 283 194 337 104 189 290 342 494 408 127 41 335 41 500 0z
m516 -90 c60 -47 78 -50 83 -12 l4 27 12 -28 c17 -41 14 -116 -7 -162 -10 -22
-60 -96 -112 -165 -85 -112 -104 -144 -122 -201 -4 -13 -22 -18 -74 -21 -37
-2 -83 -11 -102 -21 -19 -9 -40 -17 -47 -17 -19 0 -49 48 -69 110 -21 67 -59
120 -86 120 -34 0 -20 17 31 38 55 23 70 44 51 75 -20 30 3 43 23 13 19 -30
56 -35 56 -8 0 9 -11 39 -25 66 -13 27 -22 52 -19 57 9 16 30 10 54 -16 24
-25 80 -35 80 -14 0 6 -9 24 -21 41 -28 39 -19 44 29 16 l41 -23 23 23 c14 12
30 22 36 22 15 0 15 22 0 55 -15 33 -5 41 24 21 37 -26 58 -21 58 14 0 41 18
38 79 -10z m-8398 -1246 c8 -10 55 -36 105 -59 50 -24 94 -48 98 -54 5 -7 27
-1 68 20 102 51 196 71 343 73 157 1 254 -18 370 -74 82 -40 150 -97 191 -161
18 -29 54 -53 176 -119 235 -126 398 -237 534 -363 l61 -57 209 -29 c705 -101
1110 -255 1379 -525 50 -50 112 -122 137 -161 l47 -70 -30 -27 c-16 -16 -40
-28 -53 -28 -25 0 -27 4 -40 63 -4 15 -11 27 -16 27 -15 0 -12 -41 5 -70 17
-30 19 -59 5 -80 -16 -24 -48 23 -56 82 -11 78 -24 36 -24 -75 0 -55 -5 -108
-11 -120 l-12 -21 -9 24 c-6 14 -16 84 -23 155 l-13 130 -48 43 c-105 93 -406
284 -422 268 -3 -3 14 -43 37 -88 35 -67 42 -91 41 -133 -2 -68 -3 -67 21 -54
19 10 21 17 15 58 -3 25 -9 58 -12 74 -7 32 4 34 39 7 31 -24 47 -90 47 -191
0 -44 4 -68 10 -64 6 3 10 43 10 89 0 56 5 88 14 102 15 19 15 19 38 -4 22
-21 23 -29 20 -142 -2 -100 0 -120 12 -120 25 0 31 21 36 125 l5 100 20 -35
c16 -29 20 -59 23 -173 4 -145 14 -169 40 -92 10 32 11 58 1 133 -6 51 -9 95
-6 98 11 11 36 -53 48 -121 16 -94 7 -192 -37 -386 -44 -195 -51 -329 -21
-416 20 -57 29 -63 92 -63 101 0 129 44 145 230 6 68 14 128 18 132 16 16 60
-32 77 -81 29 -88 128 -220 393 -524 277 -318 368 -439 471 -628 l42 -77 -30
-10 c-22 -8 -36 -7 -57 5 -16 8 -41 12 -56 9 -27 -5 -28 -4 -28 34 0 23 -5 40
-11 40 -6 0 -54 22 -108 48 -94 48 -142 76 -441 257 -202 122 -376 208 -511
252 -63 20 -115 37 -116 38 -1 0 4 50 12 110 28 213 17 262 -65 286 -104 31
-197 -53 -217 -196 -3 -26 -11 -49 -18 -51 -17 -7 -175 51 -290 105 -251 119
-420 247 -861 651 -178 164 -337 300 -348 300 -4 0 20 -35 53 -78 79 -103 254
-272 471 -457 96 -83 221 -193 278 -245 88 -82 112 -99 177 -123 103 -39 160
-108 101 -123 -40 -10 -87 12 -171 81 -44 36 -132 98 -195 137 -117 73 -169
120 -415 377 -50 51 -142 133 -206 182 -106 81 -170 140 -209 194 -8 11 -53
42 -100 69 -47 27 -141 87 -210 134 -485 333 -603 406 -780 483 -223 96 -357
124 -590 123 -204 -1 -340 -24 -561 -97 -92 -30 -133 -40 -139 -32 -18 22 -40
142 -40 222 l0 81 48 44 c27 23 98 70 158 103 151 83 216 149 268 272 46 109
88 162 151 192 84 39 144 50 291 50 120 1 144 -2 155 -15z m-209 -899 c231
-35 464 -128 800 -321 355 -204 707 -472 983 -750 66 -67 138 -130 160 -142
52 -26 139 -95 262 -208 55 -50 146 -123 204 -161 57 -39 123 -91 147 -117 41
-44 68 -93 58 -104 -9 -8 -109 45 -182 97 -38 27 -127 99 -199 161 -117 101
-182 152 -225 175 -28 15 115 -127 250 -248 74 -66 170 -153 213 -193 l78 -72
-16 -83 c-26 -136 -31 -275 -11 -341 39 -136 145 -183 289 -129 32 11 66 21
76 21 10 0 119 -86 242 -191 559 -477 822 -666 1169 -841 85 -43 160 -78 167
-78 28 0 11 -20 -27 -31 -35 -11 -47 -9 -112 14 -164 60 -307 61 -1013 7 -183
-13 -291 -12 -440 5 -230 27 -309 57 -463 174 -119 91 -152 107 -367 181 -222
76 -228 79 -296 151 -41 44 -62 59 -82 59 -20 0 -30 7 -37 25 -18 47 -82 138
-139 198 -31 33 -130 120 -221 192 -181 145 -302 265 -339 336 -27 50 -28 41
22 174 31 83 -18 182 -101 205 -54 15 -115 12 -187 -7 -63 -17 -64 -17 -114 6
-62 30 -119 88 -209 217 -39 56 -89 117 -110 135 -37 33 -39 37 -51 134 -53
415 -238 665 -549 743 -61 16 -76 24 -91 49 -36 57 -116 114 -278 195 -90 45
-163 84 -163 88 0 11 84 91 125 120 203 140 494 198 777 155z m4259 -190 c10
-22 19 -56 18 -75 l0 -35 -19 23 c-19 23 -32 60 -45 132 -6 34 -5 34 11 15 9
-11 25 -38 35 -60z m1697 -210 c153 -120 275 -327 338 -570 26 -98 29 -127 29
-265 0 -85 -3 -163 -8 -174 -7 -18 -8 -18 -27 -1 -23 21 -25 47 -9 111 22 86
-32 321 -115 508 -61 136 -216 324 -306 371 -32 16 -38 33 -18 53 22 22 60 12
116 -33z m-7100 4 c1 -8 -15 -44 -36 -79 -48 -79 -68 -138 -54 -152 6 -6 16
-7 22 -3 16 10 40 69 40 98 0 13 6 32 14 43 12 15 17 17 27 6 11 -10 8 -23
-14 -67 -31 -63 -34 -97 -11 -116 8 -7 24 -30 35 -50 20 -40 46 -54 79 -44 16
5 20 2 20 -15 0 -34 27 -88 70 -143 36 -45 39 -52 24 -60 -9 -5 -39 -7 -66 -4
-150 18 -295 189 -306 361 -7 110 25 180 103 227 33 21 49 20 53 -2z m5488
-40 c33 -67 54 -165 54 -261 0 -80 -8 -95 -28 -55 -25 48 -33 84 -47 206 -22
186 -21 192 21 110z m766 -29 c36 -11 85 -34 109 -52 44 -32 242 -207 246
-217 1 -3 8 -31 17 -61 9 -33 44 -101 85 -164 74 -114 95 -175 89 -256 l-3
-45 -35 48 c-19 27 -68 110 -108 185 -123 229 -229 373 -326 444 -30 21 -50
28 -87 28 -26 0 -59 4 -73 10 -23 8 -26 15 -26 55 0 41 2 45 24 45 13 0 53 -9
88 -20z m-6062 -14 c0 -32 -64 -156 -95 -186 l-27 -25 8 30 c15 61 35 110 65
157 34 53 49 60 49 24z m6944 -159 c13 -13 31 -48 41 -78 10 -30 24 -63 31
-75 12 -18 11 -23 -14 -47 -25 -24 -98 -57 -126 -57 -13 0 -6 246 7 268 12 19
35 14 61 -11z m-1744 -6 c0 -20 -79 -73 -177 -121 -161 -77 -205 -137 -303
-408 -56 -153 -54 -138 -34 -299 4 -29 4 -53 0 -53 -27 0 -77 34 -92 62 -50
97 18 393 130 561 79 119 221 222 349 253 63 15 127 17 127 5z m855 -147 c93
-15 199 -45 246 -69 19 -10 28 -24 31 -47 3 -18 8 -40 12 -49 5 -12 -9 -10
-76 12 -46 15 -125 34 -177 43 -170 29 -481 17 -622 -24 -20 -6 -54 -24 -74
-40 -42 -34 -53 -36 -80 -16 -17 12 -17 17 -5 45 32 79 169 143 340 161 106
11 287 4 405 -16z m-785 6 c16 0 -22 -95 -47 -117 -13 -13 -27 -23 -31 -23
-11 0 -34 85 -30 107 3 19 63 45 86 37 8 -2 17 -4 22 -4z m-126 -207 c61 -122
102 -171 242 -290 51 -43 70 -68 108 -145 25 -51 62 -151 82 -223 19 -71 49
-172 64 -224 l29 -95 -153 160 c-306 319 -412 447 -471 569 -90 186 -86 365 8
365 32 0 35 -3 91 -117z m1926 64 c0 -11 -341 -227 -357 -227 -9 0 48 73 96
123 47 50 103 85 156 98 31 7 105 11 105 6z m-1227 -64 c10 -12 24 -79 42
-208 75 -546 201 -1146 283 -1350 22 -56 75 -150 100 -177 14 -17 13 -18 -16
-18 -62 0 -117 76 -163 228 -12 37 -36 105 -54 152 -24 59 -37 115 -45 185
-13 124 -29 219 -85 505 -59 303 -72 384 -85 525 -15 185 -13 198 23 158z
m237 -2 c45 -6 88 -15 95 -21 15 -13 0 -102 -51 -295 -19 -71 -44 -170 -55
-220 l-22 -90 -23 62 c-44 117 -59 216 -59 388 0 155 6 202 23 191 5 -3 46
-10 92 -15z m-520 -21 c18 -18 20 -33 20 -127 -1 -103 -1 -107 -16 -79 -12 21
-54 195 -54 222 0 12 33 1 50 -16z m154 -87 c3 -27 33 -174 65 -328 72 -341
108 -551 120 -712 8 -97 14 -130 33 -162 26 -46 20 -61 -16 -37 -45 29 -91
147 -147 376 -28 118 -67 249 -85 292 -31 70 -34 85 -34 175 0 54 9 159 20
233 11 74 20 154 20 178 0 56 16 46 24 -15z m1370 41 c14 -13 14 -19 1 -50 -8
-19 -24 -49 -36 -65 -18 -25 -21 -43 -20 -108 1 -69 -2 -83 -25 -117 -49 -72
-57 -99 -129 -454 -66 -323 -126 -491 -211 -587 l-33 -38 40 130 c97 320 227
822 306 1177 l28 128 32 0 c17 0 39 -7 47 -16z m-1642 -21 c14 -13 18 -31 18
-85 0 -80 -10 -85 -65 -37 -39 35 -47 78 -19 117 18 26 41 28 66 5z m-365
-301 c81 -116 245 -326 423 -542 294 -356 422 -527 550 -734 68 -109 82 -125
140 -163 138 -90 169 -115 188 -157 11 -22 19 -42 17 -44 -2 -2 -27 14 -56 35
-29 21 -81 47 -116 59 l-63 21 -248 334 c-422 569 -667 891 -869 1142 -80 99
-129 185 -149 261 -28 105 -16 102 52 -10 36 -60 95 -150 131 -202z m1197 236
c13 -50 4 -130 -29 -263 -31 -121 -67 -347 -91 -562 -3 -35 -10 -63 -14 -63
-4 0 -13 39 -20 87 -15 102 -3 266 30 428 25 124 101 395 111 395 4 0 9 -10
13 -22z m180 -24 c15 -28 22 -62 24 -119 3 -86 -1 -101 -117 -407 -52 -139
-66 -216 -91 -506 -11 -132 -24 -251 -29 -264 -14 -32 -14 446 -1 592 21 232
62 458 105 580 33 94 69 170 78 167 6 -2 20 -21 31 -43z m436 12 c0 -1 -12
-65 -26 -142 -44 -243 -82 -365 -139 -453 -13 -20 -29 -65 -35 -101 -6 -36
-28 -128 -50 -205 -21 -77 -49 -178 -61 -225 -27 -104 -49 -156 -84 -195 l-26
-30 6 55 c10 90 42 208 111 400 73 206 91 273 133 520 33 188 52 262 83 325
31 61 47 76 69 64 11 -5 19 -11 19 -13z m2105 -87 c32 -6 133 -38 224 -71 178
-64 179 -64 291 -33 71 20 192 19 261 -1 130 -39 207 -93 421 -294 133 -125
154 -141 177 -136 14 4 65 9 112 13 148 10 241 -24 432 -159 104 -73 111 -76
136 -64 55 27 122 38 205 34 73 -4 96 -10 161 -42 80 -40 181 -126 230 -195
26 -38 27 -47 29 -163 1 -115 4 -127 32 -188 17 -36 73 -121 124 -190 142
-193 160 -235 186 -450 19 -163 43 -248 124 -445 34 -82 78 -197 98 -255 34
-99 36 -112 36 -235 0 -116 -3 -139 -27 -212 -15 -46 -32 -83 -37 -83 -5 0
-17 15 -27 33 -14 26 -18 60 -18 187 l-1 155 -48 130 c-26 72 -52 154 -57 184
-17 89 -147 284 -351 525 l-83 99 -138 48 c-75 26 -188 72 -251 102 -94 45
-123 65 -172 117 -66 69 -90 84 -236 140 -55 22 -143 63 -196 93 -126 70 -206
101 -324 127 -352 76 -667 80 -852 9 -68 -25 -84 -24 -92 6 -4 18 -13 25 -30
25 -37 0 -198 -54 -459 -155 -347 -134 -511 -185 -690 -215 -88 -14 -346 -15
-405 -1 -69 16 -103 13 -162 -14 -33 -15 -71 -25 -100 -25 -42 0 -49 3 -63 30
-24 46 -18 69 31 122 38 41 45 55 42 79 -3 19 -1 28 6 26 51 -19 54 -18 100
35 25 29 69 71 97 93 84 65 91 73 79 95 -18 33 -11 46 38 77 31 19 67 57 107
113 33 47 74 94 92 105 18 11 35 29 39 40 30 95 88 195 212 364 34 46 78 118
99 160 l37 77 124 69 c215 120 293 141 437 114z m-2423 -226 c-176 -570 -216
-1013 -119 -1301 14 -40 39 -94 55 -120 l30 -47 -19 -105 c-50 -285 5 -423
168 -421 93 1 187 57 372 220 156 137 233 174 133 64 -225 -250 -438 -358
-636 -324 -84 15 -131 37 -145 68 -17 37 -13 126 9 205 11 40 20 85 20 99 0
60 -68 1 -139 -120 -35 -59 -45 -68 -112 -103 -205 -104 -422 -140 -635 -103
-231 41 -431 140 -766 380 -87 63 -196 137 -241 164 -110 68 -118 75 -169 156
-51 80 -94 122 -199 193 -72 48 -159 131 -159 152 0 5 10 10 23 10 14 0 44
-22 82 -60 33 -33 63 -60 67 -60 19 0 5 31 -24 54 -18 14 -28 26 -22 26 23 0
208 -166 374 -336 l175 -180 140 -73 c77 -41 232 -126 345 -190 l205 -115 63
3 c46 2 87 -5 155 -26 188 -57 346 -26 579 114 84 51 98 71 98 143 l0 50 96 0
97 0 -6 51 c-4 29 -27 96 -53 153 -79 172 -87 199 -92 332 -5 150 9 299 53
559 38 226 71 348 119 451 31 66 93 150 103 140 3 -3 -9 -49 -25 -103z m-2270
-210 c-2 -94 -1 -103 19 -116 l21 -15 -23 -31 c-22 -30 -22 -31 -6 -88 10 -32
28 -110 41 -174 29 -138 44 -170 132 -277 60 -75 99 -146 88 -164 -11 -17
-113 41 -176 101 -79 74 -135 175 -169 306 -27 105 -36 324 -19 464 l12 102
42 -3 41 -3 -3 -102z m-350 -53 c20 -6 60 -32 88 -57 l52 -47 -6 -76 c-10
-112 -20 -137 -60 -144 -50 -9 -110 -58 -161 -129 -100 -140 -120 -166 -129
-167 -5 0 -6 25 -4 55 7 78 45 133 171 245 115 102 163 160 154 184 -9 23 -68
56 -98 56 -20 0 -30 -7 -39 -29 -6 -16 -10 -38 -8 -48 3 -12 -10 -28 -42 -49
-75 -52 -148 -133 -183 -203 -29 -59 -32 -74 -32 -153 l1 -86 -26 18 c-104 75
-137 198 -90 335 70 205 256 338 412 295z m2645 -27 c3 -9 1 -34 -6 -57 -7
-23 -18 -61 -25 -86 -12 -39 -14 -42 -23 -25 -8 14 -7 35 3 70 7 28 13 65 14
83 0 35 25 46 37 15z m-1999 -259 c248 -96 484 -236 837 -497 365 -269 524
-376 674 -452 82 -41 82 -55 0 -55 -57 0 -119 32 -212 108 -38 32 -100 83
-138 114 -39 32 -114 83 -167 114 -152 88 -259 162 -300 209 -25 29 -68 58
-132 90 -52 26 -175 92 -273 147 -173 96 -291 153 -372 178 -102 32 -111 39
-77 59 30 18 91 12 160 -15z m-444 -69 c8 -31 -2 -54 -15 -34 -11 18 -11 59 0
59 5 0 12 -11 15 -25z m-75 -87 c11 -8 29 -25 39 -39 31 -40 84 -139 75 -139
-16 0 -97 56 -124 86 -32 34 -69 94 -69 111 0 14 48 2 79 -19z m611 -45 c101
-33 233 -109 520 -298 214 -141 416 -290 380 -280 -50 14 -248 129 -469 274
-252 165 -388 247 -486 292 -36 17 -65 33 -65 36 0 7 65 -6 120 -24z m-72 -74
c187 -108 1062 -652 1057 -657 -2 -2 -30 4 -62 13 -108 31 -257 112 -503 274
-243 161 -407 253 -507 286 -29 9 -53 21 -53 26 0 5 -16 32 -35 60 -61 88 -54
88 103 -2z m-326 -142 c20 -12 104 -94 185 -182 191 -207 205 -219 369 -320
139 -86 154 -103 53 -62 -143 59 -258 153 -508 415 -157 165 -179 198 -99 149z
m4997 -70 c-25 -23 -166 -74 -175 -64 -10 9 59 50 114 68 78 25 93 24 61 -4z
m537 8 c-3 -8 -8 -37 -12 -65 -8 -60 5 -80 50 -80 57 0 74 44 36 93 l-20 25
69 13 c40 7 108 10 162 7 159 -9 301 -62 587 -220 180 -99 168 -84 141 -175
-16 -53 -8 -63 54 -65 38 -2 51 2 75 25 15 15 32 27 38 27 5 0 90 -41 189 -90
141 -71 198 -94 264 -108 l84 -17 78 -88 c43 -48 146 -176 228 -284 l151 -196
0 -97 c0 -64 10 -154 29 -261 16 -90 33 -192 36 -226 7 -68 -3 -199 -15 -186
-4 4 -15 71 -25 148 -24 198 -65 345 -96 345 -20 0 -22 -33 -5 -87 10 -30 15
-57 12 -61 -8 -7 -6 -10 -57 87 -81 155 -150 210 -262 211 -43 0 -67 6 -88 20
-32 23 -72 103 -115 230 -21 63 -39 96 -69 127 -72 75 -127 70 -188 -17 -45
-65 -61 -76 -93 -62 -36 17 -61 78 -73 182 -22 179 -46 216 -136 214 -66 -2
-127 -34 -158 -84 -12 -19 -42 -82 -67 -139 l-45 -104 -70 -18 c-87 -22 -109
-23 -125 -4 -7 8 -21 15 -30 15 -21 0 -43 52 -60 142 -24 124 -145 218 -290
226 -88 5 -138 -7 -202 -47 -48 -31 -108 -116 -108 -156 -1 -40 -11 -44 -75
-29 -74 17 -164 18 -219 2 -43 -13 -84 -50 -312 -289 -131 -137 -164 -195
-171 -297 -4 -61 -1 -74 31 -145 40 -88 44 -124 17 -182 -32 -69 -102 -115
-175 -115 -32 0 -36 3 -45 38 -6 20 -11 41 -11 45 0 5 -27 63 -61 130 -55 110
-60 124 -51 154 12 38 -4 59 -38 48 -19 -6 -21 -5 -11 13 6 12 20 23 30 27 19
6 19 7 -4 40 -12 19 -29 58 -35 87 -18 77 -46 127 -84 149 -28 16 -35 28 -41
65 -9 59 -60 156 -139 263 -84 113 -112 160 -124 204 -10 36 -10 37 18 37 33
0 65 -35 75 -80 8 -37 48 -70 75 -63 31 8 33 20 11 57 -21 33 -27 67 -15 79 4
4 24 -9 45 -28 53 -48 113 -76 175 -82 49 -5 54 -4 54 14 0 34 -21 83 -40 93
-10 6 -32 10 -49 10 -33 0 -37 9 -21 40 9 17 92 50 126 50 7 0 20 -25 29 -55
18 -63 47 -79 90 -51 31 21 31 40 0 91 -29 47 -31 61 -9 69 23 9 50 -9 64 -43
13 -33 39 -46 70 -36 30 9 25 54 -10 95 l-30 34 -80 -12 c-46 -6 -167 -41
-278 -78 -179 -61 -206 -68 -297 -72 -55 -2 -116 0 -135 5 -33 9 -32 10 35 17
94 10 279 51 395 88 117 37 223 79 500 196 327 137 490 189 680 217 125 19
174 19 166 0z m-5042 -50 c180 -133 552 -358 788 -476 48 -24 88 -47 88 -50 0
-11 -110 11 -173 35 -83 32 -161 77 -325 189 -75 52 -182 118 -236 148 -105
57 -187 123 -211 170 -28 54 -23 52 69 -16z m1821 -65 c-8 -31 -52 -100 -64
-100 -20 0 -41 13 -41 25 0 8 18 35 40 60 22 25 40 54 40 63 1 15 3 14 16 -3
9 -12 13 -30 9 -45z m-746 -15 c34 -39 55 -77 65 -117 6 -26 5 -27 -25 -16
-21 7 -42 29 -66 65 -19 30 -45 59 -59 65 -18 9 -21 14 -13 25 21 25 65 15 98
-22z m-849 -189 c442 -274 613 -360 870 -434 l65 -19 -30 -14 c-20 -9 -71 -13
-155 -13 -109 0 -136 4 -210 28 -171 57 -317 143 -440 262 -58 57 -98 84 -177
124 -117 58 -208 135 -254 214 -16 28 -29 55 -29 59 0 12 110 -51 360 -207z
m2215 142 c146 -138 251 -373 274 -613 10 -109 5 -170 -17 -212 -14 -26 -40
-53 -51 -53 -5 0 -9 41 -10 90 -5 255 -108 556 -240 703 -31 35 -39 65 -32
130 2 17 25 4 76 -45z m1660 1 c-152 -103 -410 -185 -690 -219 -49 -6 -106
-13 -125 -16 -35 -6 -35 -6 -16 15 26 28 78 41 205 50 92 7 119 14 206 50 55
23 161 60 235 83 74 22 146 44 160 48 45 15 56 10 25 -11z m-1745 -222 c63
-12 65 -14 63 -41 -7 -98 -129 -235 -327 -368 l-128 -87 -53 27 c-48 25 -51
28 -37 44 20 24 0 48 -40 48 -39 0 -32 22 9 31 16 3 35 9 41 13 19 12 14 48
-10 74 -23 23 -23 24 -3 38 20 15 20 15 -3 34 -12 10 -27 20 -34 22 -7 3 -5
13 7 31 11 17 16 39 13 62 -4 35 -4 35 57 55 33 11 85 24 115 29 66 12 239 5
330 -12z m544 -66 c33 -12 77 -21 99 -21 86 0 378 -242 481 -398 55 -84 163
-315 209 -447 28 -81 31 -106 36 -250 6 -148 8 -164 33 -215 15 -30 53 -86 84
-125 119 -147 154 -224 154 -337 0 -58 -5 -78 -36 -141 -43 -86 -41 -103 10
-169 148 -186 153 -226 50 -438 -76 -156 -94 -211 -94 -286 0 -72 23 -122 111
-244 85 -117 112 -187 117 -297 4 -79 0 -111 -28 -225 l-33 -134 29 -100 c25
-88 29 -114 29 -239 0 -106 -5 -157 -19 -210 -42 -155 -123 -312 -256 -495
-55 -76 -76 -96 -142 -135 -83 -51 -215 -101 -291 -111 -39 -5 -50 -12 -58
-31 -20 -54 -2 -111 57 -174 14 -14 28 -40 33 -57 9 -29 8 -32 -13 -32 -36 0
-127 30 -174 56 -117 68 -129 202 -41 430 135 347 144 381 159 609 24 365 -41
776 -173 1085 -56 131 -84 175 -154 245 -51 51 -73 88 -153 245 -60 121 -125
230 -185 315 -129 182 -229 334 -394 599 -111 177 -145 238 -149 271 -2 25 0
45 7 49 25 16 10 46 -34 72 -48 28 -65 50 -65 83 0 15 9 22 43 28 32 7 42 13
42 28 0 26 -42 31 -103 14 -37 -10 -45 -10 -53 2 -14 23 -11 30 31 69 22 20
37 40 33 43 -3 4 -27 7 -53 7 -59 0 -76 14 -84 70 -3 25 -8 59 -12 75 -5 27
-2 32 28 45 32 14 33 18 38 80 5 60 7 66 39 87 l33 23 -26 10 c-15 5 -31 10
-36 10 -5 0 -7 7 -4 15 11 27 -36 17 -79 -19 -54 -43 -80 -56 -111 -56 -30 0
-33 17 -10 61 20 39 62 56 170 69 116 13 166 39 289 151 103 93 160 133 214
149 29 8 31 7 48 -38 23 -60 22 -164 -1 -225 l-18 -47 26 -45 c16 -27 44 -55
71 -71 l45 -26 34 26 c46 34 72 80 92 157 31 121 8 395 -46 534 -10 26 -9 32
9 46 23 19 44 16 145 -20z m-5077 -107 c104 -34 193 -116 193 -176 0 -23 5
-26 49 -32 98 -13 210 -49 381 -123 406 -175 497 -206 668 -224 98 -11 125
-10 323 15 119 15 240 26 270 24 53 -3 54 -4 57 -36 l3 -33 30 26 c28 23 39
25 123 25 72 0 100 4 131 20 51 26 53 25 25 -5 -13 -14 -21 -27 -18 -30 3 -3
34 1 69 10 82 19 158 19 322 -1 150 -19 293 -15 350 9 43 18 47 10 17 -37 -52
-86 -260 -180 -439 -201 -61 -7 -65 -9 -130 -75 -76 -77 -144 -109 -251 -117
l-65 -5 29 24 c24 20 28 29 22 52 -7 30 -59 66 -94 66 -62 0 -122 -65 -122
-132 l0 -38 -102 0 c-57 0 -109 4 -116 8 -7 5 -22 33 -33 63 -25 66 -52 97
-93 105 -38 7 -84 -10 -93 -33 -4 -10 6 -40 26 -75 23 -42 28 -59 19 -62 -46
-14 -94 -18 -374 -26 -347 -9 -451 -22 -611 -75 -231 -77 -424 -209 -622 -428
-129 -144 -446 -546 -455 -580 -24 -87 -74 -223 -133 -360 -120 -279 -146
-370 -147 -517 -1 -109 9 -200 23 -200 5 0 11 37 15 82 29 348 185 788 393
1107 99 153 255 341 282 341 17 0 -35 -92 -199 -350 -252 -395 -343 -578 -406
-806 -29 -107 -34 -192 -20 -349 7 -86 6 -97 -34 -250 -30 -115 -43 -189 -47
-262 -8 -139 11 -199 120 -373 47 -74 81 -136 76 -138 -5 -2 -36 9 -69 24 -87
39 -143 106 -230 275 -39 77 -100 187 -135 245 -36 58 -69 122 -75 142 -6 21
-15 119 -20 218 -9 195 -18 246 -51 288 -25 32 -89 66 -122 66 -62 0 -86 11
-92 44 -4 17 -18 67 -32 111 -32 102 -35 207 -6 280 11 28 45 92 76 144 89
147 89 198 0 289 l-55 57 4 85 c5 104 30 158 122 263 l63 73 6 89 c6 100 17
144 47 193 18 28 25 32 65 32 49 0 108 20 138 48 32 28 73 121 101 227 15 55
36 123 47 152 27 67 93 129 146 138 21 4 43 8 50 10 6 2 21 46 33 98 21 92 23
95 53 101 51 10 124 97 197 234 125 235 197 289 327 246z m3413 -10 c78 -37
106 -44 140 -34 25 7 30 6 30 -9 0 -9 -12 -29 -28 -44 -27 -26 -28 -26 -40 -6
-15 24 -75 51 -152 69 -78 18 -91 26 -60 39 38 15 50 13 110 -15z m4027 -118
c28 -7 75 -27 105 -42 l53 -29 3 -72 c3 -66 -6 -91 -22 -64 -3 4 -20 11 -38
15 -18 3 -53 16 -77 28 -43 21 -45 21 -55 4 -36 -61 -54 -81 -71 -81 -17 0
-19 6 -17 33 5 44 -11 40 -44 -12 -27 -43 -28 -43 -44 -23 -16 20 -16 20 -36
-6 -10 -13 -24 -33 -31 -43 -11 -18 -13 -18 -32 6 -25 31 -39 20 -61 -48 -11
-35 -21 -48 -37 -50 -22 -3 -23 0 -23 57 0 59 1 60 35 77 48 23 88 71 135 165
25 50 49 83 63 89 34 13 136 11 194 -4z m822 -62 c-16 -20 -39 -17 -39 4 0 27
10 33 32 21 15 -8 17 -13 7 -25z m-4541 -207 c3 -61 1 -68 -15 -65 -23 4 -43
44 -43 89 0 42 7 51 35 47 18 -3 20 -11 23 -71z m3222 38 c16 -15 34 -41 39
-57 10 -27 9 -29 -10 -23 -27 9 -47 -10 -55 -51 -10 -57 -31 -59 -43 -4 -5 27
-8 29 -24 18 -12 -9 -18 -29 -20 -70 -1 -32 -4 -58 -6 -58 -11 0 -41 34 -41
47 0 7 -4 13 -9 13 -6 0 -11 -19 -13 -42 -4 -53 -23 -59 -42 -14 -15 37 -42
48 -53 21 -3 -9 2 -35 11 -58 9 -24 16 -53 16 -66 0 -37 -23 -18 -35 29 -12
49 -37 72 -57 52 -10 -10 -9 -22 5 -61 24 -69 23 -93 -5 -89 -17 2 -25 14 -34
43 -8 29 -17 41 -32 43 -29 4 -29 -24 0 -105 24 -67 19 -115 -13 -121 -21 -4
-28 15 -40 108 -5 41 -14 77 -19 78 -6 2 -10 10 -10 17 0 24 135 217 202 288
73 79 115 99 201 94 46 -3 62 -8 87 -32z m-3379 -104 c8 -62 -8 -147 -36 -195
-14 -22 -61 -86 -105 -141 -46 -56 -97 -133 -117 -175 -124 -264 -119 -255
-193 -322 -101 -90 -301 -231 -395 -278 -70 -35 -98 -42 -220 -60 -77 -10
-161 -26 -186 -35 -52 -18 -112 -72 -139 -126 -31 -60 -150 -94 -298 -86 -113
6 -177 26 -362 115 -145 70 -214 92 -284 92 -114 0 -156 -28 -273 -183 -112
-147 -179 -181 -307 -157 -59 11 -64 10 -98 -12 -57 -36 -74 -78 -97 -232 -23
-154 -44 -204 -96 -232 -31 -16 -35 -16 -81 0 -103 36 -99 35 -153 10 -72 -33
-90 -75 -91 -207 0 -92 -2 -101 -29 -140 -36 -52 -85 -99 -176 -167 -176 -132
-225 -208 -241 -370 -8 -85 6 -180 63 -418 41 -176 46 -210 47 -317 0 -88 -5
-136 -18 -182 -19 -64 -33 -75 -60 -48 -15 15 -19 25 -30 76 -3 15 -34 60 -68
101 -123 144 -194 276 -222 410 -23 110 -20 153 19 317 27 118 37 188 49 361
26 355 50 422 280 779 47 73 129 219 182 323 109 215 175 309 299 426 208 197
417 289 730 321 68 7 127 6 240 -6 l150 -16 95 40 c113 48 181 59 450 73 245
13 397 27 479 46 35 8 66 12 69 9 3 -3 7 -31 9 -63 3 -40 -5 -92 -25 -174
l-29 -118 31 0 c18 0 40 6 50 13 20 15 35 73 36 135 0 32 6 49 25 67 13 14 29
25 35 25 6 0 10 12 8 28 -2 21 -13 32 -48 50 -72 36 -88 72 -32 72 15 0 56 9
90 20 35 11 74 20 85 19 29 0 97 -82 97 -115 0 -22 3 -24 23 -19 12 4 32 18
45 31 19 22 22 36 22 105 0 59 3 79 13 79 8 0 43 14 78 32 50 25 102 69 245
209 140 137 195 184 243 209 69 34 126 49 181 47 33 -2 35 -4 41 -46z m252
-50 c9 -15 28 -77 42 -137 14 -59 34 -123 45 -141 10 -18 16 -35 11 -37 -16
-10 -57 21 -75 57 -15 32 -65 244 -66 284 0 20 25 5 43 -26z m-720 -61 c-36
-61 -75 -100 -99 -100 -20 0 64 128 95 145 42 23 42 18 4 -45z m648 -56 c19
-42 51 -205 42 -214 -10 -10 -62 60 -72 97 -5 21 -12 71 -15 112 -6 68 -5 73
10 60 10 -8 25 -32 35 -55z m372 -18 c8 -21 -21 -56 -49 -56 -31 0 -30 13 3
45 32 29 39 30 46 11z m-1317 -122 c-13 -34 -51 -73 -66 -67 -40 15 -64 13
-128 -12 -37 -15 -81 -25 -98 -23 l-29 3 47 31 c30 20 80 38 145 53 54 13 103
24 108 26 21 7 27 4 21 -11z m896 -37 c8 -12 22 -43 32 -69 26 -69 36 -75 102
-52 41 14 59 16 72 8 25 -16 26 -60 3 -93 -23 -32 -28 -100 -10 -118 9 -9 21
-8 50 4 21 8 43 13 49 11 6 -2 30 -46 53 -98 83 -184 218 -391 347 -532 39
-43 73 -90 76 -104 5 -30 32 -83 98 -198 42 -73 48 -96 26 -96 -9 0 -214 270
-287 380 -74 112 -164 262 -228 380 l-57 105 6 -57 c11 -109 71 -208 390 -648
254 -352 360 -516 475 -735 19 -36 20 -37 15 -10 -18 84 -84 213 -223 433 -46
74 -49 83 -29 77 39 -12 82 -62 132 -151 26 -47 97 -165 158 -262 154 -245
197 -319 266 -457 146 -293 211 -560 215 -887 2 -148 1 -158 -20 -180 -44 -47
-69 -127 -103 -328 -22 -133 -51 -235 -76 -266 -13 -17 -14 -15 -8 31 3 28 17
107 30 177 43 234 54 422 23 391 -22 -22 -39 -127 -46 -277 -6 -156 -7 -160
-40 -223 -37 -69 -63 -170 -63 -243 0 -39 6 -51 45 -92 45 -48 79 -60 102 -37
8 8 19 -6 41 -52 40 -82 92 -143 155 -179 l50 -28 -39 -11 c-97 -27 -186 -2
-248 70 -18 22 -53 76 -77 120 -24 44 -61 108 -81 143 l-37 63 34 79 c72 168
101 351 92 584 -3 80 -8 152 -12 161 -3 10 -23 19 -44 23 -21 3 -89 26 -150
50 -61 25 -126 48 -146 52 -29 5 -35 10 -35 33 0 14 -6 50 -14 78 -35 131
-114 187 -213 153 -27 -10 -39 -5 -144 61 -157 98 -211 146 -248 221 -17 34
-31 71 -31 84 0 15 -8 24 -25 28 -14 4 -25 11 -25 16 0 6 -24 10 -53 10 -43 0
-61 -6 -104 -35 -63 -42 -109 -46 -140 -12 -32 34 -40 56 -57 146 -17 90 -40
146 -62 155 -7 3 -53 0 -101 -5 -206 -26 -281 10 -422 200 -155 209 -243 421
-271 646 -15 130 -4 213 56 410 26 83 49 176 51 207 l6 56 77 62 c134 105 251
263 326 443 20 48 40 87 44 87 4 0 28 -16 55 -36 60 -46 102 -112 117 -186 8
-37 17 -58 26 -58 8 0 27 -11 44 -25 16 -14 41 -25 54 -25 24 0 24 1 9 30 -20
39 -19 46 11 85 l25 34 -22 12 c-35 18 -119 100 -135 131 -19 36 -18 88 2 118
36 53 60 58 86 17z m2756 -115 c3 -70 2 -73 -17 -63 -14 8 -21 26 -26 65 -8
60 -2 79 23 74 14 -3 18 -18 20 -76z m-3728 63 c0 -9 -80 -55 -129 -75 -81
-31 -291 -67 -291 -49 0 13 59 48 103 60 21 5 92 19 158 30 67 10 129 24 138
29 19 11 21 12 21 5z m1397 -130 c18 -35 26 -98 12 -93 -27 9 -52 58 -57 110
l-5 53 20 -25 c11 -14 25 -34 30 -45z m-2277 -60 c0 -2 -15 -12 -32 -22 -29
-16 -56 -18 -216 -15 -204 3 -249 -4 -285 -48 -14 -16 -27 -27 -29 -25 -2 2
-60 9 -128 15 -415 35 -821 -98 -1084 -354 -42 -41 -76 -73 -76 -70 0 21 94
145 150 197 207 196 513 279 1129 307 124 6 253 12 286 13 114 6 285 7 285 2z
m2355 -244 c33 -35 76 -74 96 -86 25 -17 39 -35 48 -66 20 -68 52 -125 141
-249 86 -120 113 -167 136 -233 13 -36 13 -38 -2 -26 -53 44 -294 365 -382
510 -69 114 -157 289 -125 249 15 -19 55 -64 88 -99z m4565 -218 c23 -52 21
-60 -9 -44 -46 25 -72 123 -50 187 l13 39 13 -68 c7 -37 22 -88 33 -114z m584
53 c25 -33 35 -167 17 -234 -14 -51 -36 -64 -153 -92 -144 -35 -326 -22 -413
29 -37 21 -45 50 -16 58 33 8 25 21 -21 33 -86 22 -123 53 -112 96 5 19 7 19
64 -9 153 -76 400 -27 546 107 27 25 53 44 58 42 6 -1 19 -15 30 -30z m-4645
-572 c29 -37 28 -67 -1 -59 -27 8 -68 50 -68 71 0 24 47 16 69 -12z m231 -367
c25 -31 50 -90 50 -114 -1 -14 -8 -9 -31 17 -26 31 -79 128 -79 145 0 10 38
-20 60 -48z m311 -512 c104 -155 194 -385 246 -622 25 -118 27 -146 27 -353 1
-193 -3 -244 -23 -355 -41 -229 -119 -493 -201 -680 l-31 -70 5 100 c6 103 24
178 85 350 110 305 124 372 124 590 2 338 -71 605 -279 1019 -46 93 -84 171
-84 175 1 12 91 -94 131 -154z m-4911 -1485 c0 -132 -155 -214 -446 -236 l-92
-7 -12 55 c-10 45 -10 64 4 117 9 34 16 75 16 91 l0 28 73 -20 c47 -13 107
-21 172 -21 122 -2 171 18 213 88 l27 44 22 -47 c13 -27 23 -66 23 -92z"/>
</g>
</svg>
